<svg width="960" height="540" viewBox="0 0 960 540" fill="none" xmlns="http://www.w3.org/2000/svg">
  <defs>
    <linearGradient id="g3" x1="0" y1="40" x2="960" y2="520" gradientUnits="userSpaceOnUse">
      <stop stop-color="#EDF6FF"/>
      <stop offset="1" stop-color="#DDEFFC"/>
    </linearGradient>
  </defs>
  <rect width="960" height="540" rx="20" fill="url(#g3)"/>
  <rect x="84" y="86" width="792" height="368" rx="24" fill="#F8FCFF" stroke="#D1E6F6"/>

  <rect x="126" y="136" width="708" height="84" rx="14" fill="#EEF7FF"/>
  <rect x="160" y="164" width="190" height="26" rx="10" fill="#BFDAEF"/>
  <rect x="370" y="164" width="146" height="26" rx="10" fill="#D8ECFC"/>
  <rect x="536" y="164" width="118" height="26" rx="10" fill="#D8ECFC"/>
  <rect x="674" y="164" width="126" height="26" rx="10" fill="#0C6CAE"/>

  <rect x="126" y="254" width="228" height="160" rx="14" fill="#EDF6FF" stroke="#CFE3F2"/>
  <rect x="366" y="254" width="228" height="160" rx="14" fill="#EDF6FF" stroke="#CFE3F2"/>
  <rect x="606" y="254" width="228" height="160" rx="14" fill="#EDF6FF" stroke="#CFE3F2"/>

  <path d="M184 384V312" stroke="#0C6CAE" stroke-width="8" stroke-linecap="round"/>
  <path d="M220 384V330" stroke="#0EA58F" stroke-width="8" stroke-linecap="round"/>
  <path d="M256 384V296" stroke="#0C6CAE" stroke-width="8" stroke-linecap="round"/>

  <path d="M430 336H534" stroke="#B8D6EE" stroke-width="12" stroke-linecap="round"/>
  <path d="M430 368H500" stroke="#A8D4E6" stroke-width="12" stroke-linecap="round"/>

  <circle cx="676" cy="336" r="26" fill="#0C6CAE"/>
  <circle cx="734" cy="336" r="26" fill="#0EA58F"/>
  <circle cx="792" cy="336" r="26" fill="#0C6CAE"/>
</svg>
