<svg width="960" height="540" viewBox="0 0 960 540" fill="none" xmlns="http://www.w3.org/2000/svg">
  <defs>
    <linearGradient id="g2" x1="120" y1="30" x2="860" y2="500" gradientUnits="userSpaceOnUse">
      <stop stop-color="#F0F8FF"/>
      <stop offset="1" stop-color="#DEEEFB"/>
    </linearGradient>
  </defs>
  <rect width="960" height="540" rx="20" fill="url(#g2)"/>
  <rect x="80" y="84" width="800" height="372" rx="24" fill="#F8FCFF" stroke="#D1E6F6"/>

  <rect x="132" y="136" width="300" height="116" rx="14" fill="#EEF7FF"/>
  <rect x="452" y="136" width="376" height="116" rx="14" fill="#EEF7FF"/>

  <path d="M162 220L208 182L246 198L290 160L334 172L380 146" stroke="#0C6CAE" stroke-width="6" stroke-linecap="round"/>
  <path d="M482 224H786" stroke="#C4DDF2" stroke-width="10"/>
  <path d="M482 188H760" stroke="#B8D6EE" stroke-width="10"/>
  <path d="M482 152H724" stroke="#9FC7E7" stroke-width="10"/>

  <rect x="132" y="282" width="696" height="122" rx="16" fill="#EDF6FF" stroke="#CFE3F2"/>
  <rect x="162" y="316" width="124" height="56" rx="12" fill="#0C6CAE"/>
  <rect x="308" y="316" width="124" height="56" rx="12" fill="#0EA58F"/>
  <rect x="454" y="316" width="124" height="56" rx="12" fill="#0C6CAE"/>
  <rect x="600" y="316" width="124" height="56" rx="12" fill="#0EA58F"/>
</svg>
